<?xml version="1.0" encoding="UTF-8"?>
<svg width="1920px" height="575px" viewBox="0 0 1920 575" version="1.1" xmlns="http://www.w3.org/2000/svg" xmlns:xlink="http://www.w3.org/1999/xlink">
    <title>INLASERWORLD_modrobile@1x</title>
    <g id="INLASERWORLD_modrobile" stroke="none" stroke-width="1" fill="none" fill-rule="evenodd">
        <g id="Group-2" transform="translate(5.000000, 29.000000)" fill-rule="nonzero">
            <path d="M267.992248,510.294574 L267.992248,297.085271 L214.689922,297.085271 L214.689922,456.992248 L161.387597,456.992248 L161.387597,297.085271 L108.085271,297.085271 L108.085271,456.992248 L54.7829457,456.992248 L54.7829457,297.085271 L1.48062016,297.085271 L1.48062016,510.294574 L267.992248,510.294574 Z M561.155039,510.294574 L561.155039,297.085271 L294.643411,297.085271 L294.643411,510.294574 L561.155039,510.294574 Z M507.852713,456.992248 L347.945736,456.992248 L347.945736,350.387597 L507.852713,350.387597 L507.852713,456.992248 Z M641.108527,510.294574 L641.108527,430.341085 L706.278949,430.341085 L786.648861,510.294574 L854.317829,510.294574 L774.364341,430.341085 L854.317829,430.341085 L854.317829,350.387597 L801.015504,297.085271 L587.806202,297.085271 L587.806202,510.294574 L641.108527,510.294574 Z M801.015504,377.03876 L641.108527,377.03876 L641.108527,350.387597 L774.364341,350.387597 L801.015504,377.03876 Z M1147.48062,510.294574 L1147.48062,456.992248 L934.271318,456.992248 L934.271318,297.085271 L880.968992,297.085271 L880.968992,510.294574 L1147.48062,510.294574 Z M1440.64341,510.294574 L1440.64341,350.387597 L1387.34109,297.085271 L1174.13178,297.085271 L1174.13178,510.294574 L1440.64341,510.294574 Z M1387.34109,456.992248 L1227.43411,456.992248 L1227.43411,350.387597 L1360.68992,350.387597 L1387.34109,377.03876 L1387.34109,456.992248 Z" id="WORLD" fill="#FFFFFF"></path>
            <g id="in-laser" transform="translate(0.000000, 0.961240)">
                <path d="M53.3023256,213.209302 L53.3023256,-1.57806584e-13 L-2.73531413e-12,-1.57806584e-13 L-2.73531413e-12,213.209302 L53.3023256,213.209302 Z M133.255814,213.209302 L133.255814,53.3023256 L266.511628,53.3023256 L293.162791,79.9534884 L293.162791,213.209302 L346.465116,213.209302 L346.465116,53.3023256 L293.162791,-1.57806584e-13 L79.9534884,-1.57806584e-13 L79.9534884,213.209302 L133.255814,213.209302 Z" id="IN" fill="#3EC2EE"></path>
                <path d="M731.426357,213.209302 L731.426357,159.906977 L518.217054,159.906977 L518.217054,-2.27373675e-13 L464.914729,-2.27373675e-13 L464.914729,213.209302 L731.426357,213.209302 Z M811.379845,213.209302 L811.379845,133.255814 L971.286822,133.255814 L971.286822,213.209302 L1024.58915,213.209302 L1024.58915,53.3023256 L971.286822,-2.27373675e-13 L758.077519,-2.27373675e-13 L758.077519,213.209302 L811.379845,213.209302 Z M971.286822,79.9534884 L811.379845,79.9534884 L811.379845,53.3023256 L944.635659,53.3023256 L971.286822,79.9534884 Z M1317.75194,213.209302 L1317.75194,79.9534884 L1104.54264,79.9534884 L1131.1938,53.3023256 L1317.75194,53.3023256 L1317.75194,-2.27373675e-13 L1104.54264,-2.27373675e-13 L1051.24031,53.3023256 L1051.24031,133.255814 L1264.44961,133.255814 L1264.44961,159.906977 L1051.24031,159.906977 L1051.24031,213.209302 L1317.75194,213.209302 Z M1610.91473,53.3023256 L1610.91473,-2.27373675e-13 L1344.4031,-2.27373675e-13 L1344.4031,53.3023256 L1610.91473,53.3023256 Z M1610.91473,133.255814 L1610.91473,79.9534884 L1344.4031,79.9534884 L1344.4031,133.255814 L1610.91473,133.255814 Z M1610.91473,213.209302 L1610.91473,159.906977 L1344.4031,159.906977 L1344.4031,213.209302 L1610.91473,213.209302 Z M1690.86822,213.209302 L1690.86822,133.255814 L1756.03864,133.255814 L1836.40855,213.209302 L1904.07752,213.209302 L1824.12403,133.255814 L1904.07752,133.255814 L1904.07752,53.3023256 L1850.77519,-2.27373675e-13 L1637.56589,-2.27373675e-13 L1637.56589,213.209302 L1690.86822,213.209302 Z M1850.77519,79.9534884 L1690.86822,79.9534884 L1690.86822,53.3023256 L1824.12403,53.3023256 L1850.77519,79.9534884 Z" id="LASER" fill="#FFFFFF"></path>
            </g>
            <polygon id="Path" fill="#FFFFFF" points="1904.03876 510.294574 1904.03876 456.992248 1558.03876 456.992248 1558.03876 510.294574"></polygon>
        </g>
    </g>
</svg>